<?xml version="1.0" encoding="UTF-8" standalone="no"?>
<!-- Created with Inkscape (http://www.inkscape.org/) -->

<svg
   width="45.487324mm"
   height="39.928295mm"
   viewBox="0 0 45.487324 39.928295"
   version="1.1"
   id="svg1"
   xml:space="preserve"
   xmlns:inkscape="http://www.inkscape.org/namespaces/inkscape"
   xmlns:sodipodi="http://sodipodi.sourceforge.net/DTD/sodipodi-0.dtd"
   xmlns="http://www.w3.org/2000/svg"
   xmlns:svg="http://www.w3.org/2000/svg"><sodipodi:namedview
     id="namedview1"
     pagecolor="#ffffff"
     bordercolor="#000000"
     borderopacity="0.25"
     inkscape:showpageshadow="2"
     inkscape:pageopacity="0.0"
     inkscape:pagecheckerboard="0"
     inkscape:deskcolor="#d1d1d1"
     inkscape:document-units="mm"><inkscape:page
       x="0"
       y="0"
       width="45.487324"
       height="39.928295"
       id="page2"
       margin="0"
       bleed="0" /></sodipodi:namedview><defs
     id="defs1" /><g
     inkscape:label="Ebene 1"
     inkscape:groupmode="layer"
     id="layer1"
     transform="translate(-192.45054,-161.87079)"><g
       id="g1"
       transform="translate(107.73241,31.789891)"><path
         style="fill:#edd49f"
         d="m 105.34489,168.81327 c -2.9784,-2.19257 -11.002638,-9.05903 -13.580461,-11.621 -3.721023,-3.69814 -5.687771,-6.85765 -6.716732,-10.7902 -0.546056,-2.08696 -0.393834,-5.85362 0.311001,-7.69557 0.787411,-2.05774 2.748402,-4.67823 4.516593,-6.03555 2.160455,-1.65843 4.151583,-2.38882 6.976804,-2.55923 3.741755,-0.22569 6.269745,0.76682 9.391715,3.68728 0.90273,0.84446 1.73372,1.53538 1.84663,1.53538 0.11292,0 0.84003,-0.6003 1.61582,-1.33401 0.82093,-0.7764 2.26932,-1.74409 3.46514,-2.3151 1.98672,-0.94867 2.15133,-0.9811 4.97948,-0.9811 2.84189,0 2.98125,0.0279 4.91344,0.98316 4.76603,2.35634 7.14749,6.08725 7.14114,11.18767 -0.004,2.84113 -0.48286,4.80061 -1.88416,7.70245 -2.51307,5.20412 -6.08936,8.90081 -16.36427,16.91516 -3.92422,3.06086 -4.1791,3.11177 -6.61214,1.32066 z m 6.05929,-4.93861 c 8.11172,-6.4719 11.56059,-10.16217 13.93864,-14.91424 2.46971,-4.93524 2.02027,-9.34783 -1.26513,-12.42093 -1.61153,-1.5074 -3.26074,-2.27449 -5.28458,-2.45801 -3.49759,-0.31715 -6.20444,1.16663 -9.66536,5.29812 -3.71006,4.4289 -5.33975,8.57274 -4.62593,11.76242 0.27318,1.22071 0.57335,1.72496 1.69386,2.84547 1.14582,1.14582 1.64998,1.43984 3.17832,1.85354 1.54911,0.41932 2.06658,0.44886 3.51563,0.20064 0.93453,-0.16007 2.19588,-0.53681 2.80299,-0.83719 1.46565,-0.72514 1.90077,-0.32276 0.84388,0.7804 -1.28315,1.33932 -3.72465,2.3819 -5.96861,2.54874 -2.31316,0.17198 -3.55249,-0.11917 -5.52393,-1.29771 -2.96327,-1.77145 -4.57249,-5.58196 -3.96453,-9.38766 0.36717,-2.2984 1.60184,-5.22908 3.22595,-7.65733 l 1.30056,-1.9445 -0.55217,-0.77545 c -0.86008,-1.20788 -3.61911,-3.14495 -5.11009,-3.58773 -4.399343,-1.30646 -9.454586,1.14818 -11.041748,5.36148 -1.697361,4.50583 -0.283322,9.34474 4.241886,14.51595 2.983821,3.40978 13.805972,12.46969 14.953072,12.51816 0.15355,0.006 1.64183,-1.07538 3.30729,-2.40417 z"
         id="path7" /><path
         style="fill:#b1cacc"
         d="m 105.34489,168.81327 c -2.9784,-2.19257 -11.002638,-9.05903 -13.580461,-11.621 -3.721023,-3.69814 -5.687771,-6.85765 -6.716732,-10.7902 -0.546056,-2.08696 -0.393834,-5.85362 0.311001,-7.69557 1.281395,-3.34867 4.524206,-6.66985 7.689354,-7.87517 2.239216,-0.85272 5.792315,-0.99746 7.918048,-0.32256 2.03811,0.64708 4.13809,2.03432 5.90059,3.89791 l 1.37343,1.45219 0.97942,-0.99837 c 3.23605,-3.29868 7.67273,-4.70452 11.56275,-3.66385 8.1149,2.17092 11.34888,10.34791 7.43924,18.80981 -2.38397,5.15978 -5.74116,8.78918 -14.4507,15.62236 -1.81901,1.42713 -3.27869,2.69214 -3.24374,2.81114 0.11951,0.40685 -1.90478,1.55484 -2.7417,1.55484 -0.57329,0 -1.33923,-0.37082 -2.4405,-1.18153 z m 6.44157,-4.8003 c 7.88121,-6.30471 11.50455,-10.215 13.96546,-15.07144 2.40706,-4.75018 1.85689,-9.70465 -1.40313,-12.6357 -2.16958,-1.95064 -3.41417,-2.42666 -6.34463,-2.42666 -2.11428,0 -2.71719,0.10026 -3.79568,0.63119 -1.52342,0.74999 -3.63831,2.50253 -4.00952,3.32258 -0.36219,0.8001 -1.75613,2.41072 -2.01894,2.33276 -0.11767,-0.0349 -0.71693,0.67721 -1.33169,1.58249 -2.46797,3.63424 -3.44036,7.61915 -2.47564,10.14525 1.43278,3.75168 5.87626,5.54243 10.15663,4.09319 0.92649,-0.31369 1.73519,-0.51969 1.79711,-0.45776 0.25005,0.25005 -1.57994,1.49425 -2.95381,2.00829 -4.06971,1.52267 -7.98435,0.54989 -10.36907,-2.57669 -1.51684,-1.9887 -2.06739,-5.26961 -1.3828,-8.2405 0.37455,-1.62542 2.14623,-5.33426 3.29695,-6.90185 l 0.9518,-1.29662 -0.71305,-0.93487 c -1.05761,-1.3866 -3.67647,-3.24715 -5.21277,-3.70339 -1.728127,-0.51319 -3.174597,-0.50759 -4.976389,0.0193 -6.018882,1.76002 -8.418753,7.95347 -5.541066,14.30007 1.37693,3.03676 3.467937,5.63429 7.477999,9.28948 3.914716,3.56828 10.936716,9.06745 11.571406,9.06197 0.0747,-6.5e-4 1.56458,-1.14413 3.31083,-2.54107 z"
         id="path6" /><path
         style="fill:#e7c377"
         d="m 105.00078,168.22873 c -4.29968,-3.31825 -10.049138,-8.28249 -12.947096,-11.17887 -4.710744,-4.70818 -6.769517,-8.54295 -7.058,-13.14659 -0.244172,-3.89651 0.955704,-6.94816 3.89725,-9.9119 2.692183,-2.7125 5.69086,-3.8519 9.549541,-3.62852 2.751435,0.15928 5.249585,1.36308 7.877185,3.79583 l 1.88045,1.74101 0.99942,-1.01878 c 3.2568,-3.31989 7.68258,-4.72765 11.58276,-3.68426 6.76424,1.80959 10.39274,8.13296 8.72537,15.20568 -1.36071,5.77193 -5.59598,11.18304 -13.88475,17.73957 -2.25557,1.78419 -4.73904,3.77145 -5.51882,4.41615 -1.97576,1.63349 -2.61328,1.59235 -5.10331,-0.32932 z m 6.78568,-4.21576 c 7.88121,-6.30471 11.50455,-10.215 13.96546,-15.07144 2.40706,-4.75018 1.85689,-9.70465 -1.40313,-12.6357 -2.16958,-1.95064 -3.41417,-2.42666 -6.34463,-2.42666 -3.7818,0 -5.12727,0.80228 -9.3182,5.55625 -3.82445,4.33826 -5.53139,9.26841 -4.31327,12.45802 1.43278,3.75168 5.87626,5.54243 10.15663,4.09319 0.92649,-0.31369 1.73519,-0.51969 1.79711,-0.45776 0.25005,0.25005 -1.57994,1.49425 -2.95381,2.00829 -4.06971,1.52267 -7.98435,0.54989 -10.36907,-2.57669 -1.51684,-1.9887 -2.06739,-5.26961 -1.3828,-8.2405 0.3722,-1.61521 2.14368,-5.33079 3.27886,-6.87721 0.51355,-0.69959 0.93372,-1.45157 0.93372,-1.67106 0,-0.63458 -3.00318,-3.24325 -4.68376,-4.06847 -1.326922,-0.65157 -1.837471,-0.75219 -3.782905,-0.74558 -1.861787,0.006 -2.507459,0.12752 -3.750508,0.7039 -3.007586,1.39458 -4.932393,3.8791 -5.533777,7.14292 -0.886376,4.81054 1.847734,10.24715 7.978285,15.86435 4.881655,4.47288 11.282035,9.4874 12.106645,9.48522 0.24428,-6.5e-4 1.8729,-1.14413 3.61915,-2.54107 z"
         id="path5" /><path
         style="fill:#8eb1b2"
         d="m 105.00078,168.22873 c -4.29968,-3.31825 -10.049138,-8.28249 -12.947096,-11.17887 -4.710744,-4.70818 -6.769517,-8.54295 -7.058,-13.14659 -0.244172,-3.89651 0.955704,-6.94816 3.89725,-9.9119 2.692183,-2.7125 5.69086,-3.8519 9.549541,-3.62852 2.743805,0.15883 5.250635,1.36406 7.857665,3.77776 1.02351,0.94761 1.94635,1.72293 2.05076,1.72293 0.10441,0 0.8908,-0.64897 1.74754,-1.44216 0.85675,-0.7932 2.36094,-1.83499 3.34266,-2.31511 1.67419,-0.81877 1.95732,-0.87293 4.56306,-0.87293 2.65986,0 2.86577,0.0418 4.83668,0.98295 2.66973,1.2748 4.68755,3.2568 5.79953,5.69656 0.65978,1.44759 0.83781,2.23959 0.937,4.1684 0.15692,3.05139 -0.3574,5.3177 -1.92143,8.46667 -2.24732,4.52467 -5.4311,8.0143 -12.4299,13.62398 -2.47385,1.98284 -4.9325,4.04462 -5.46365,4.58174 -1.4444,1.46063 -2.31288,1.36489 -4.76161,-0.52491 z m 6.2915,-3.53011 c 1.43596,-1.16664 3.34375,-2.72072 4.23953,-3.45349 6.17195,-5.04884 10.40887,-10.69692 11.59715,-15.45971 1.21214,-4.85846 -0.69582,-9.05899 -5.18706,-11.4197 -1.27249,-0.66885 -1.69194,-0.74873 -3.93774,-0.74986 -2.10851,-0.001 -2.71793,0.0994 -3.78194,0.62327 -1.73353,0.85357 -4.11865,2.84045 -4.30604,3.58708 -0.0847,0.33744 -0.82962,1.25967 -1.6554,2.0494 -3.29723,3.15334 -5.12328,8.08121 -4.28672,11.56839 0.43045,1.79432 2.13722,3.71083 4.0343,4.53006 1.80906,0.78121 4.41618,0.96101 6.147,0.42391 0.72081,-0.22368 1.35419,-0.36307 1.4075,-0.30975 0.0533,0.0533 -0.71253,0.49543 -1.70188,0.98248 -1.62501,0.79999 -2.01664,0.88425 -4.05334,0.87211 -2.66925,-0.0159 -4.24783,-0.64471 -5.99029,-2.38614 -2.15732,-2.15603 -2.8528,-6.18186 -1.67297,-9.68412 0.71753,-2.12995 2.11163,-4.86373 3.13255,-6.14278 0.45154,-0.56572 0.82098,-1.15591 0.82098,-1.31154 0,-0.58765 -3.36965,-3.54021 -4.89479,-4.28891 -1.385499,-0.68015 -1.87366,-0.77834 -3.836455,-0.77167 -1.861787,0.006 -2.507459,0.12752 -3.750508,0.7039 -4.130775,1.91539 -6.316572,6.12522 -5.562197,10.71276 0.391198,2.37897 2.225281,6.01945 4.26076,8.45722 1.78673,2.13985 5.858102,5.88995 10.03252,9.24086 2.84669,2.28511 5.75504,4.34741 6.13092,4.34741 0.1118,0 1.37816,-0.95453 2.81412,-2.12118 z"
         id="path4" /><path
         style="fill:#e3b557"
         d="m 104.87706,167.82694 c -8.779407,-6.89535 -14.851438,-12.61077 -16.87803,-15.88679 -4.065824,-6.57247 -3.68645,-13.12052 1.031068,-17.7964 2.656945,-2.63349 5.615261,-3.73613 9.431157,-3.51523 2.779635,0.16091 5.228725,1.35715 7.703705,3.76282 0.98275,0.95523 1.84358,1.73679 1.91295,1.73679 0.0694,0 0.91359,-0.71363 1.87604,-1.58585 0.96246,-0.87221 2.54241,-1.97354 3.51101,-2.44739 1.64718,-0.80583 1.94076,-0.86155 4.5392,-0.86155 2.65986,0 2.86577,0.0418 4.83668,0.98295 2.66973,1.2748 4.68755,3.2568 5.79953,5.69656 0.65978,1.44759 0.83781,2.23959 0.937,4.1684 0.15692,3.05139 -0.3574,5.3177 -1.92143,8.46667 -2.26533,4.56094 -5.45341,8.04114 -12.56219,13.71327 -2.54662,2.03196 -5.02131,4.03421 -5.49931,4.44945 -1.3939,1.21087 -2.25616,1.04934 -4.71738,-0.8837 z m 6.76077,-3.38839 c 8.31162,-6.68428 11.95535,-10.60833 14.37243,-15.47813 1.68428,-3.39339 1.92168,-7.36184 0.6018,-10.05959 -0.81049,-1.65658 -2.71817,-3.50909 -4.67016,-4.53511 -1.27249,-0.66885 -1.69194,-0.74873 -3.93774,-0.74986 -2.26094,-0.001 -2.66854,0.0773 -4.05594,0.78024 -3.26288,1.65327 -8.28432,7.7341 -9.53614,11.54803 -1.14215,3.47978 -0.80883,6.08081 1.04322,8.14074 2.03203,2.26011 5.71517,3.23935 8.70006,2.3131 0.72081,-0.22368 1.35419,-0.36307 1.4075,-0.30975 0.0533,0.0533 -0.71253,0.49543 -1.70188,0.98248 -1.62501,0.79999 -2.01664,0.88425 -4.05334,0.87211 -2.66925,-0.0159 -4.24783,-0.64471 -5.99029,-2.38614 -2.15732,-2.15603 -2.8528,-6.18186 -1.67297,-9.68412 0.71753,-2.12995 2.11163,-4.86373 3.13255,-6.14278 0.45154,-0.56572 0.82098,-1.23667 0.82098,-1.49102 0,-0.70219 -3.34592,-3.68239 -5.01054,-4.46286 -1.993401,-0.93463 -4.970133,-0.95189 -7.279642,-0.0422 -2.21103,0.8709 -4.639309,3.29386 -5.411675,5.39983 -1.457312,3.97358 -0.662991,8.06807 2.443751,12.59679 2.208876,3.2199 10.997346,11.14861 15.884246,14.33032 1.29955,0.8461 1.62495,0.95782 1.99924,0.68644 0.24588,-0.17828 1.55743,-1.21711 2.91454,-2.30851 z"
         id="path3" /><path
         style="fill:#4b878b"
         d="m 104.87706,167.82694 c -8.779407,-6.89535 -14.851438,-12.61077 -16.87803,-15.88679 -4.065824,-6.57247 -3.68645,-13.12052 1.031068,-17.7964 2.656945,-2.63349 5.615261,-3.73613 9.431157,-3.51523 3.004735,0.17394 5.154635,1.31151 8.497495,4.49625 1.41935,1.35221 2.5802,2.59826 2.57969,2.769 -10e-4,0.46063 -1.31583,1.93852 -1.72413,1.93852 -0.19428,0 -0.63018,-0.37734 -0.96867,-0.83855 -1.44709,-1.9717 -4.22442,-4.49983 -5.70579,-5.19383 -2.048627,-0.95974 -4.996074,-0.98636 -7.332122,-0.0662 -2.21103,0.8709 -4.639309,3.29386 -5.411675,5.39983 -1.533853,4.18228 -0.547485,8.60027 2.962627,13.26976 2.890041,3.8446 12.91226,12.45949 17.07773,14.67967 0.89664,0.4779 1.63025,0.96275 1.63025,1.07743 0,0.46434 -1.44875,1.30526 -2.24872,1.30526 -0.64631,0 -1.36267,-0.39917 -2.94088,-1.63869 z"
         id="path2" /><path
         style="fill:#53745c"
         d="m 106.82552,169.17985 c -0.25466,-0.14832 -0.46302,-0.42161 -0.46302,-0.60729 0,-0.48637 1.14172,-1.48818 1.69602,-1.48818 0.52809,0 2.00814,0.80615 2.00814,1.0938 0,0.30832 -1.74606,1.28803 -2.28018,1.2794 -0.27387,-0.004 -0.7063,-0.1294 -0.96096,-0.27773 z m -0.0316,-30.14847 c -0.41586,-0.49422 -0.61241,-0.97548 -0.51326,-1.25677 0.2135,-0.60578 1.16321,-1.64648 1.50251,-1.64648 0.33397,0 1.7543,1.3368 1.7543,1.65114 0,0.38274 -1.43384,2.05301 -1.76242,2.05302 -0.16896,0 -0.61048,-0.36041 -0.98113,-0.80091 z"
         id="path1" /></g></g></svg>
