<?xml version="1.0" encoding="UTF-8" standalone="no"?>
<!-- Created with Inkscape (http://www.inkscape.org/) -->

<svg
   width="47.737049mm"
   height="52.898987mm"
   viewBox="0 0 47.737049 52.898987"
   version="1.1"
   id="svg1"
   xml:space="preserve"
   xmlns="http://www.w3.org/2000/svg"
   xmlns:svg="http://www.w3.org/2000/svg"><defs
     id="defs1" /><g
     id="g41"
     transform="translate(-116.93482,-209.30488)"><g
       id="g21"
       transform="translate(33.669925,94.732331)"><path
         style="fill:#c2eaf9"
         d="M 88.150817,167.12589 C 87.1286,166.34105 87.115412,166.108 87.115412,148.8293 c 0,-11.0359 -0.09097,-16.81844 -0.264584,-16.81844 -0.170166,0 -0.264583,2.67626 -0.264583,7.49962 0,6.92949 -0.03678,7.53291 -0.483854,7.9375 -0.611161,0.55309 -1.733483,0.564 -2.275372,0.0221 -0.361891,-0.36189 -0.415774,-1.59751 -0.415774,-9.53431 0,-8.02484 0.05231,-9.19838 0.436165,-9.78421 0.882051,-1.34618 1.394215,-1.43237 8.510848,-1.43237 9.385462,0 8.780072,-0.78893 8.780072,11.442 0,9.59055 -0.0237,9.72466 -1.719793,9.72466 -1.668336,0 -1.719792,-0.25508 -1.719792,-8.52553 0,-4.72326 -0.09454,-7.34947 -0.264583,-7.34947 -0.173656,0 -0.264584,5.86894 -0.264584,17.07766 v 17.07765 l -0.649431,0.64943 c -0.439523,0.43952 -0.94564,0.64943 -1.565861,0.64943 -2.528203,0 -2.547208,-0.0808 -2.547208,-10.83478 0,-5.82959 -0.09337,-9.00897 -0.264583,-9.00897 -0.171356,0 -0.264583,3.2672 -0.264583,9.27244 v 9.27245 l -0.649432,0.64943 c -0.720159,0.72016 -2.332145,0.88268 -3.077663,0.31029 z m 3.462511,-41.67014 c -2.393406,-0.32191 -4.24522,-1.99606 -4.735242,-4.28096 -1.176814,-5.48729 5.725392,-8.95522 9.363702,-4.70468 1.58158,1.84773 1.839285,3.72828 0.812977,5.93258 -0.938055,2.01474 -3.301591,3.34087 -5.441437,3.05306 z"
         id="path27" /><path
         style="fill:#e7e3d8"
         d="m 114.06916,166.73743 c -0.3291,-0.41965 -0.31975,-0.42901 0.0999,-0.0999 0.25466,0.19972 0.46302,0.40808 0.46302,0.46302 0,0.21776 -0.21727,0.0776 -0.56292,-0.36312 z m 3.85493,-8.7974 c 0,-4.29286 0.0364,-6.04904 0.0809,-3.9026 0.0445,2.14643 0.0445,5.65877 0,7.8052 -0.0445,2.14644 -0.0809,0.39027 -0.0809,-3.9026 z m -11.79243,-13.4276 c -0.3291,-0.41965 -0.31975,-0.42901 0.0999,-0.0999 0.25466,0.19972 0.46302,0.40808 0.46302,0.46302 0,0.21776 -0.21727,0.0776 -0.56292,-0.36312 z m 21.69584,0 c -0.32911,-0.41965 -0.31975,-0.42901 0.0999,-0.0999 0.44073,0.34564 0.58089,0.56292 0.36313,0.56292 -0.0549,0 -0.2633,-0.20836 -0.46302,-0.46302 z m -16.23813,-16.7349 c 0.26339,-0.29104 0.53842,-0.52917 0.61118,-0.52917 0.0728,0 -0.0832,0.23813 -0.3466,0.52917 -0.26339,0.29104 -0.53842,0.52917 -0.61118,0.52917 -0.0728,0 0.0832,-0.23813 0.3466,-0.52917 z m -11.54312,-0.19844 c -0.329111,-0.41964 -0.319753,-0.429 0.0999,-0.0999 0.44073,0.34564 0.58089,0.56291 0.36313,0.56291 -0.055,0 -0.2633,-0.20836 -0.46302,-0.46302 z m 22.10981,-11.50937 -0.77711,-0.8599 0.8599,0.77711 c 0.80154,0.72437 0.98151,0.94268 0.77711,0.94268 -0.0455,0 -0.43249,-0.38695 -0.8599,-0.85989 z m -26.202245,0 -0.504028,-0.59532 0.595312,0.50403 c 0.559447,0.47366 0.715762,0.6866 0.504028,0.6866 -0.05021,0 -0.318097,-0.26789 -0.595312,-0.59531 z"
         id="path26" /><path
         style="fill:#faebab"
         d="m 118.92727,158.02458 -0.0619,-7.72066 -0.59531,-0.11466 -0.59531,-0.11467 0.60361,-0.036 c 0.33199,-0.0198 0.66132,0.11433 0.73183,0.29809 0.0705,0.18377 0.0946,3.72588 0.0536,7.87136 l -0.0747,7.53723 z m -8.4544,-7.95227 c 0.69562,-0.0547 1.76718,-0.054 2.38125,0.001 0.61408,0.0555 0.0449,0.10023 -1.26475,0.0994 -1.30969,-8.1e-4 -1.81211,-0.0462 -1.1165,-0.10089 z m 13.75834,0 c 0.69561,-0.0547 1.76718,-0.054 2.38125,0.001 0.61407,0.0555 0.0449,0.10023 -1.26476,0.0994 -1.30968,-8.1e-4 -1.81211,-0.0462 -1.11649,-0.10089 z m 6.58223,-6.68436 c 0,-0.36381 0.06,-0.51263 0.13345,-0.33073 0.0734,0.1819 0.0734,0.47955 0,0.66146 -0.0734,0.1819 -0.13345,0.0331 -0.13345,-0.33073 z m -5.89636,-15.54427 c -0.32911,-0.41965 -0.31975,-0.42901 0.0999,-0.0999 0.44073,0.34564 0.58089,0.56292 0.36313,0.56292 -0.0549,0 -0.2633,-0.20836 -0.46302,-0.46302 z m -10.41729,-11.70782 c 0.26339,-0.29104 0.53842,-0.52916 0.61118,-0.52916 0.0728,0 -0.0832,0.23812 -0.3466,0.52916 -0.26339,0.29104 -0.53842,0.52917 -0.61118,0.52917 -0.0728,0 0.0832,-0.23813 0.3466,-0.52917 z"
         id="path25" /><path
         style="fill:#cfd1cb"
         d="m 113.69076,157.94003 c 0,-4.29286 0.0364,-6.04904 0.0809,-3.9026 0.0445,2.14643 0.0445,5.65877 0,7.8052 -0.0445,2.14644 -0.0809,0.39027 -0.0809,-3.9026 z M 86.702558,139.2869 c 1.33e-4,-4.07458 0.03686,-5.70448 0.08162,-3.62201 0.04476,2.08248 0.04465,5.41623 -2.42e-4,7.40834 -0.04489,1.9921 -0.08151,0.28826 -0.08138,-3.78633 z m -0.09542,-18.54288 c 0.0127,-0.30822 0.07539,-0.37092 0.159852,-0.15985 0.07643,0.191 0.06703,0.4192 -0.02089,0.50712 -0.08792,0.0879 -0.150452,-0.0683 -0.138964,-0.34727 z"
         id="path24" /><path
         style="fill:#f9e48d"
         d="m 116.74875,167.10055 c 0,-0.0549 0.20835,-0.2633 0.46302,-0.46302 0.41964,-0.32911 0.429,-0.31975 0.0999,0.0999 -0.34564,0.44073 -0.56291,0.58088 -0.56291,0.36312 z m 6.20242,-9.16052 c 0,-4.29286 0.0364,-6.04904 0.0809,-3.9026 0.0445,2.14643 0.0445,5.65877 0,7.8052 -0.0445,2.14644 -0.0809,0.39027 -0.0809,-3.9026 z"
         id="path23" /><path
         style="fill:#f9e17b"
         d="m 115.13333,167.14808 c -1.21195,-0.4058 -1.295,-1.00563 -1.295,-9.35279 v -7.79276 h -2.40956 c -1.85834,0 -2.37961,-0.0781 -2.27863,-0.34119 0.7946,-2.07068 4.71889,-15.86591 4.60085,-16.17353 -0.3619,-0.9431 -0.94183,0.13741 -2.79545,5.20844 -1.07622,2.94423 -2.13647,5.56151 -2.35612,5.81618 -0.21964,0.25466 -0.67856,0.46302 -1.01981,0.46302 -0.66274,0 -1.67944,-0.84174 -1.67778,-1.38907 10e-4,-0.4092 4.64079,-13.49012 5.21053,-14.69076 0.2337,-0.49249 0.89778,-1.15531 1.52687,-1.52399 1.06659,-0.62506 1.30416,-0.65243 5.66261,-0.65243 4.88758,0 5.74204,0.17174 6.85237,1.37728 0.64384,0.69904 5.61745,14.327 5.61745,15.3921 0,1.18982 -1.49166,1.89728 -2.43768,1.15614 -0.23218,-0.1819 -1.28689,-2.71198 -2.3438,-5.6224 -1.05691,-2.91042 -2.05056,-5.43619 -2.20811,-5.61283 -0.17073,-0.19142 -0.43075,-0.23194 -0.64366,-0.1003 -0.28531,0.17639 0.12744,1.82634 2.05052,8.19671 1.32425,4.38672 2.40773,8.0884 2.40773,8.22594 0,0.13755 -1.04179,0.28449 -2.3151,0.32654 l -2.31511,0.0764 -0.0699,8.09834 c -0.0666,7.71309 -0.0951,8.12111 -0.59873,8.57691 -0.75107,0.67971 -2.07882,0.61827 -2.67988,-0.124 -0.45027,-0.55606 -0.48793,-1.22327 -0.48793,-8.64306 v -8.04048 h -0.66146 -0.66146 v 7.90182 c 0,7.46903 -0.0286,7.93822 -0.52278,8.56643 -0.6278,0.79811 -1.22683,0.98673 -2.15097,0.6773 z m 0.79713,-42.36743 c -3.34522,-1.76607 -3.85416,-6.30157 -0.9829,-8.75927 2.50075,-2.14054 6.40301,-1.52413 7.98919,1.26199 0.82237,1.44448 1.01635,2.6108 0.66579,4.00301 -0.83858,3.33032 -4.67389,5.07713 -7.67208,3.49427 z"
         id="path22" /><path
         style="fill:#b2b8b6"
         d="m 83.264896,138.09628 c 0,-4.72943 0.03588,-6.66419 0.07973,-4.29948 0.04385,2.36471 0.04385,6.23425 0,8.59896 -0.04385,2.36471 -0.07973,0.42995 -0.07973,-4.29948 z m 6.018664,-11.57437 c 1.556284,-0.0467 4.175659,-0.0469 5.820833,-3.6e-4 1.645175,0.0465 0.371852,0.0847 -2.829606,0.0849 -3.201459,2e-4 -4.547511,-0.0378 -2.991227,-0.0845 z m 27.14702,2.4e-4 c 1.20746,-0.0491 3.11246,-0.0489 4.23333,6.1e-4 1.12088,0.0495 0.13296,0.0897 -2.19537,0.0893 -2.32834,-3.4e-4 -3.24542,-0.0408 -2.03796,-0.09 z m -3.599,-6.54983 c 0.005,-0.43656 0.0647,-0.58312 0.13177,-0.32569 0.0671,0.25743 0.0627,0.61462 -0.01,0.79375 -0.0725,0.17913 -0.12737,-0.0315 -0.12197,-0.46806 z"
         id="path21" /></g><path
       style="opacity:0.9;fill:#9a9996;fill-rule:evenodd;stroke:#deddda;stroke-width:4.52947e-07;stroke-miterlimit:0;stroke-opacity:0.950538"
       d="m 459.49309,985.83974 c -1.39304,-2.60292 -2.23277,-27.88505 -2.23277,-67.22302 0,-64.66771 -2.39067,-82.08363 -4.31378,-31.42569 -0.88583,23.33436 -1.65628,28.40805 -4.31378,28.40805 -2.72351,0 -3.31997,-5.63002 -3.77036,-35.58866 -0.29427,-19.57376 0.35202,-36.96971 1.4362,-38.65767 1.51507,-2.3588 7.98363,-3.1075 27.95272,-3.23533 34.49298,-0.22081 33.47266,-1.28297 34.41307,35.82404 0.85074,33.56877 -0.45965,43.30684 -5.69316,42.30827 -3.14298,-0.59968 -3.80281,-4.6501 -4.73723,-29.07992 -1.95238,-51.04313 -4.30658,-32.98683 -4.30658,33.03063 0,47.39562 -0.69033,65.32508 -2.58827,67.22302 -3.37058,3.37058 -9.64025,3.31329 -11.80244,-0.10785 -0.93718,-1.48286 -2.28149,-18.2257 -2.98736,-37.20632 l -1.28339,-34.51021 -0.37527,34.61805 c -0.25579,23.59626 -1.19933,35.44212 -2.96353,37.20633 -3.88642,3.88641 -9.91767,3.11822 -12.43407,-1.58372 z"
       id="path30"
       transform="scale(0.26458333)" /><path
       style="opacity:0.9;fill:#9a9996;fill-rule:evenodd;stroke:#deddda;stroke-width:4.52947e-07;stroke-miterlimit:0;stroke-opacity:0.950538"
       d="m 462.5729,825.48838 c -8.69757,-7.48134 -8.36769,-19.55676 0.75699,-27.70966 9.3533,-8.35717 16.30847,-7.97982 25.68162,1.39332 6.51984,6.51984 7.40495,8.57927 6.25728,14.559 -2.92588,15.2448 -21.06028,21.76587 -32.69589,11.75734 z"
       id="path31"
       transform="scale(0.26458333)" /><path
       style="opacity:0.9;fill:#9a9996;fill-rule:evenodd;stroke:#deddda;stroke-width:4.52947e-07;stroke-miterlimit:0;stroke-opacity:0.950538"
       d="m 460.53783,985.31 c -0.55934,-1.56606 -1.81837,-31.48008 -2.79785,-66.47559 -0.97947,-34.99551 -2.39355,-62.17231 -3.14239,-60.39287 -0.74884,1.77943 -2.00772,14.63988 -2.79751,28.57877 -0.78979,13.93889 -2.31083,25.34343 -3.38009,25.34343 -1.07512,0 -1.94412,-15.79528 -1.94412,-35.33709 0,-41.39507 -2.8126,-37.92067 30.73566,-37.96766 30.2781,-0.0424 29.93641,-0.52901 29.17387,41.54653 -0.36348,20.05645 -1.43457,32.83667 -2.75199,32.83667 -1.21839,0 -2.93774,-11.26188 -3.95149,-25.88266 -1.72894,-24.93567 -2.86131,-32.84635 -4.44382,-31.04437 -0.40956,0.46636 -1.4236,29.43791 -2.25341,64.38121 -0.82982,34.94331 -1.98505,64.30395 -2.5672,65.24587 -0.58214,0.94193 -2.92386,1.71259 -5.20383,1.71259 -5.32916,0 -5.89792,-2.84802 -8.18394,-40.98087 l -1.8749,-31.27488 -0.53301,23.72577 c -0.29315,13.04917 -1.16497,29.06407 -1.93736,35.58865 -1.20237,10.15668 -2.10374,11.9622 -6.267,12.55339 -2.67446,0.37977 -5.32028,-0.59083 -5.87962,-2.15689 z"
       id="path32"
       transform="scale(0.26458333)" /><path
       style="opacity:0.9;fill:#ffa348;fill-rule:evenodd;stroke:#deddda;stroke-width:4.52947e-07;stroke-miterlimit:0;stroke-opacity:0.950538"
       d="m 462.5545,822.95092 c -7.12302,-7.12302 -6.76981,-15.1309 1.01057,-22.91128 7.81924,-7.81924 15.02984,-8.0383 23.72619,-0.7208 12.65269,10.64654 5.26061,28.92626 -11.69739,28.92626 -5.34744,0 -9.38416,-1.63897 -13.03937,-5.29418 z"
       id="path33"
       transform="scale(0.26458333)" /><path
       style="opacity:0.9;fill:#ffa348;fill-rule:evenodd;stroke:#deddda;stroke-width:4.52947e-07;stroke-miterlimit:0;stroke-opacity:0.950538"
       d="m 561.22233,987.42346 c -1.77176,-1.77177 -2.58826,-12.31823 -2.58826,-33.43177 v -30.8435 h -8.85832 c -6.60899,0 -8.57075,-0.7494 -7.7258,-2.95129 0.93097,-2.42606 5.46393,-18.3949 15.91881,-56.07911 0.75936,-2.73709 0.18053,-3.71839 -1.80446,-3.05912 -1.60735,0.53384 -6.3419,9.84319 -10.52123,20.68745 -8.61631,22.35706 -10.99401,25.79705 -14.72417,21.30249 -1.96653,-2.36953 -0.44781,-8.74371 6.98971,-29.33631 5.22618,-14.46997 11.20722,-28.19312 13.2912,-30.49589 3.23188,-3.57118 6.73039,-4.18687 23.79115,-4.18687 14.53711,0 20.85102,0.84895 23.10925,3.10718 3.09254,3.09254 20.16144,47.98559 21.37069,56.20725 0.44293,3.01146 -0.59195,4.31378 -3.42793,4.31378 -3.13085,0 -5.75534,-4.45143 -11.44501,-19.412 -7.44573,-19.57804 -10.28842,-24.53155 -12.69623,-22.12374 -1.09159,1.09159 10.92395,46.70747 15.32203,58.16868 1.02354,2.66731 -0.63228,3.75726 -7.46043,4.91087 l -8.77594,1.48269 v 28.51616 c 0,22.04897 -0.73374,29.46568 -3.23533,32.70296 -3.20263,4.14447 -3.26804,4.14447 -6.47067,0 -2.51752,-3.2579 -3.23533,-10.79488 -3.23533,-33.97099 0,-25.03691 -0.51568,-29.78419 -3.23533,-29.78419 -2.72502,0 -3.23533,4.86498 -3.23533,30.8435 0,28.89273 -1.28036,36.02003 -6.47067,36.02003 -0.71177,0 -2.45885,-1.16472 -3.8824,-2.58826 z"
       id="path34"
       transform="scale(0.26458333)" /><path
       style="opacity:0.9;fill:#c0bfbc;fill-rule:evenodd;stroke:#deddda;stroke-width:4.52947e-07;stroke-miterlimit:0;stroke-opacity:0.950538"
       d="m 561.77136,825.10781 c -11.63151,-11.63151 -3.42649,-31.37292 13.03937,-31.37292 16.73748,0 24.81745,20.07956 12.62637,31.37787 -7.65961,7.09869 -18.56421,7.09658 -25.66574,-0.005 z"
       id="path35"
       transform="scale(0.26458333)" /><path
       style="opacity:0.9;fill:#c0bfbc;fill-rule:evenodd;stroke:#deddda;stroke-width:4.52947e-07;stroke-miterlimit:0;stroke-opacity:0.950538"
       d="m 467.59957,824.24403 c -9.56669,-4.77806 -10.91801,-15.02825 -3.02216,-22.9241 6.59662,-6.59662 13.92652,-6.92302 21.51002,-0.95783 4.07106,3.2023 5.6831,6.47243 5.6831,11.5286 0,12.31155 -11.98768,18.43824 -24.17096,12.35333 z"
       id="path36"
       transform="scale(0.26458333)" /><path
       style="opacity:0.9;fill:#c0bfbc;fill-rule:evenodd;stroke:#deddda;stroke-width:4.52947e-07;stroke-miterlimit:0;stroke-opacity:0.950538"
       d="m 467.50554,822.69764 c -4.68266,-2.54038 -5.93145,-4.76697 -5.93145,-10.57578 0,-8.43419 6.10807,-14.0732 15.24385,-14.0732 12.01411,0 17.7928,17.82417 8.002,24.68192 -5.89438,4.12858 -9.65672,4.12142 -17.3144,-0.0329 z"
       id="path37"
       transform="scale(0.26458333)" /><path
       style="opacity:0.9;fill:#ffa348;fill-rule:evenodd;stroke:#deddda;stroke-width:4.52947e-07;stroke-miterlimit:0;stroke-opacity:0.950538"
       d="m 472.35853,824.55804 c -11.06285,-4.06774 -13.98695,-14.73018 -6.06395,-22.11158 6.13094,-5.71184 13.41497,-5.58762 18.92126,0.32269 6.00084,6.44114 5.51977,13.49587 -1.2853,18.84874 -5.99216,4.71344 -6.43989,4.82719 -11.57201,2.94015 z"
       id="path38"
       transform="scale(0.26458333)" /><path
       style="opacity:0.9;fill:#ffa348;fill-rule:evenodd;stroke:#deddda;stroke-width:4.52947e-07;stroke-miterlimit:0;stroke-opacity:0.950538"
       d="m 568.01857,827.17855 c -9.19209,-3.86498 -12.95994,-13.6596 -8.54153,-22.20388 6.78347,-13.11778 25.6771,-12.38116 31.31119,1.22074 5.64469,13.62747 -8.73899,26.8826 -22.76966,20.98314 z"
       id="path39"
       transform="scale(0.26458333)" /></g></svg>
