<?xml version="1.0" encoding="UTF-8" standalone="no"?>
<!-- Created with Inkscape (http://www.inkscape.org/) -->

<svg
   width="9.7849321mm"
   height="9.7103415mm"
   viewBox="0 0 9.7849321 9.7103415"
   version="1.1"
   id="svg1"
   xml:space="preserve"
   xmlns="http://www.w3.org/2000/svg"
   xmlns:svg="http://www.w3.org/2000/svg"><defs
     id="defs1" /><g
     id="g21"
     transform="translate(-113.52278,-115.27669)"><path
       style="fill:#c2eaf9"
       d="M 88.150817,167.12589 C 87.1286,166.34105 87.115412,166.108 87.115412,148.8293 c 0,-11.0359 -0.09097,-16.81844 -0.264584,-16.81844 -0.170166,0 -0.264583,2.67626 -0.264583,7.49962 0,6.92949 -0.03678,7.53291 -0.483854,7.9375 -0.611161,0.55309 -1.733483,0.564 -2.275372,0.0221 -0.361891,-0.36189 -0.415774,-1.59751 -0.415774,-9.53431 0,-8.02484 0.05231,-9.19838 0.436165,-9.78421 0.882051,-1.34618 1.394215,-1.43237 8.510848,-1.43237 9.385462,0 8.780072,-0.78893 8.780072,11.442 0,9.59055 -0.0237,9.72466 -1.719793,9.72466 -1.668336,0 -1.719792,-0.25508 -1.719792,-8.52553 0,-4.72326 -0.09454,-7.34947 -0.264583,-7.34947 -0.173656,0 -0.264584,5.86894 -0.264584,17.07766 v 17.07765 l -0.649431,0.64943 c -0.439523,0.43952 -0.94564,0.64943 -1.565861,0.64943 -2.528203,0 -2.547208,-0.0808 -2.547208,-10.83478 0,-5.82959 -0.09337,-9.00897 -0.264583,-9.00897 -0.171356,0 -0.264583,3.2672 -0.264583,9.27244 v 9.27245 l -0.649432,0.64943 c -0.720159,0.72016 -2.332145,0.88268 -3.077663,0.31029 z m 3.462511,-41.67014 c -2.393406,-0.32191 -4.24522,-1.99606 -4.735242,-4.28096 -1.176814,-5.48729 5.725392,-8.95522 9.363702,-4.70468 1.58158,1.84773 1.839285,3.72828 0.812977,5.93258 -0.938055,2.01474 -3.301591,3.34087 -5.441437,3.05306 z"
       id="path27" /><path
       style="fill:#e7e3d8"
       d="m 114.06916,166.73743 c -0.3291,-0.41965 -0.31975,-0.42901 0.0999,-0.0999 0.25466,0.19972 0.46302,0.40808 0.46302,0.46302 0,0.21776 -0.21727,0.0776 -0.56292,-0.36312 z m 3.85493,-8.7974 c 0,-4.29286 0.0364,-6.04904 0.0809,-3.9026 0.0445,2.14643 0.0445,5.65877 0,7.8052 -0.0445,2.14644 -0.0809,0.39027 -0.0809,-3.9026 z m -11.79243,-13.4276 c -0.3291,-0.41965 -0.31975,-0.42901 0.0999,-0.0999 0.25466,0.19972 0.46302,0.40808 0.46302,0.46302 0,0.21776 -0.21727,0.0776 -0.56292,-0.36312 z m 21.69584,0 c -0.32911,-0.41965 -0.31975,-0.42901 0.0999,-0.0999 0.44073,0.34564 0.58089,0.56292 0.36313,0.56292 -0.0549,0 -0.2633,-0.20836 -0.46302,-0.46302 z m -16.23813,-16.7349 c 0.26339,-0.29104 0.53842,-0.52917 0.61118,-0.52917 0.0728,0 -0.0832,0.23813 -0.3466,0.52917 -0.26339,0.29104 -0.53842,0.52917 -0.61118,0.52917 -0.0728,0 0.0832,-0.23813 0.3466,-0.52917 z m -11.54312,-0.19844 c -0.329111,-0.41964 -0.319753,-0.429 0.0999,-0.0999 0.44073,0.34564 0.58089,0.56291 0.36313,0.56291 -0.055,0 -0.2633,-0.20836 -0.46302,-0.46302 z m 22.10981,-11.50937 -0.77711,-0.8599 0.8599,0.77711 c 0.80154,0.72437 0.98151,0.94268 0.77711,0.94268 -0.0455,0 -0.43249,-0.38695 -0.8599,-0.85989 z m -26.202245,0 -0.504028,-0.59532 0.595312,0.50403 c 0.559447,0.47366 0.715762,0.6866 0.504028,0.6866 -0.05021,0 -0.318097,-0.26789 -0.595312,-0.59531 z"
       id="path26" /><path
       style="fill:#faebab"
       d="m 118.92727,158.02458 -0.0619,-7.72066 -0.59531,-0.11466 -0.59531,-0.11467 0.60361,-0.036 c 0.33199,-0.0198 0.66132,0.11433 0.73183,0.29809 0.0705,0.18377 0.0946,3.72588 0.0536,7.87136 l -0.0747,7.53723 z m -8.4544,-7.95227 c 0.69562,-0.0547 1.76718,-0.054 2.38125,0.001 0.61408,0.0555 0.0449,0.10023 -1.26475,0.0994 -1.30969,-8.1e-4 -1.81211,-0.0462 -1.1165,-0.10089 z m 13.75834,0 c 0.69561,-0.0547 1.76718,-0.054 2.38125,0.001 0.61407,0.0555 0.0449,0.10023 -1.26476,0.0994 -1.30968,-8.1e-4 -1.81211,-0.0462 -1.11649,-0.10089 z m 6.58223,-6.68436 c 0,-0.36381 0.06,-0.51263 0.13345,-0.33073 0.0734,0.1819 0.0734,0.47955 0,0.66146 -0.0734,0.1819 -0.13345,0.0331 -0.13345,-0.33073 z m -5.89636,-15.54427 c -0.32911,-0.41965 -0.31975,-0.42901 0.0999,-0.0999 0.44073,0.34564 0.58089,0.56292 0.36313,0.56292 -0.0549,0 -0.2633,-0.20836 -0.46302,-0.46302 z m -10.41729,-11.70782 c 0.26339,-0.29104 0.53842,-0.52916 0.61118,-0.52916 0.0728,0 -0.0832,0.23812 -0.3466,0.52916 -0.26339,0.29104 -0.53842,0.52917 -0.61118,0.52917 -0.0728,0 0.0832,-0.23813 0.3466,-0.52917 z"
       id="path25" /><path
       style="fill:#cfd1cb"
       d="m 113.69076,157.94003 c 0,-4.29286 0.0364,-6.04904 0.0809,-3.9026 0.0445,2.14643 0.0445,5.65877 0,7.8052 -0.0445,2.14644 -0.0809,0.39027 -0.0809,-3.9026 z M 86.702558,139.2869 c 1.33e-4,-4.07458 0.03686,-5.70448 0.08162,-3.62201 0.04476,2.08248 0.04465,5.41623 -2.42e-4,7.40834 -0.04489,1.9921 -0.08151,0.28826 -0.08138,-3.78633 z m -0.09542,-18.54288 c 0.0127,-0.30822 0.07539,-0.37092 0.159852,-0.15985 0.07643,0.191 0.06703,0.4192 -0.02089,0.50712 -0.08792,0.0879 -0.150452,-0.0683 -0.138964,-0.34727 z"
       id="path24" /><path
       style="fill:#f9e48d"
       d="m 116.74875,167.10055 c 0,-0.0549 0.20835,-0.2633 0.46302,-0.46302 0.41964,-0.32911 0.429,-0.31975 0.0999,0.0999 -0.34564,0.44073 -0.56291,0.58088 -0.56291,0.36312 z m 6.20242,-9.16052 c 0,-4.29286 0.0364,-6.04904 0.0809,-3.9026 0.0445,2.14643 0.0445,5.65877 0,7.8052 -0.0445,2.14644 -0.0809,0.39027 -0.0809,-3.9026 z"
       id="path23" /><path
       style="fill:#f9e17b"
       d="m 115.13333,167.14808 c -1.21195,-0.4058 -1.295,-1.00563 -1.295,-9.35279 v -7.79276 h -2.40956 c -1.85834,0 -2.37961,-0.0781 -2.27863,-0.34119 0.7946,-2.07068 4.71889,-15.86591 4.60085,-16.17353 -0.3619,-0.9431 -0.94183,0.13741 -2.79545,5.20844 -1.07622,2.94423 -2.13647,5.56151 -2.35612,5.81618 -0.21964,0.25466 -0.67856,0.46302 -1.01981,0.46302 -0.66274,0 -1.67944,-0.84174 -1.67778,-1.38907 10e-4,-0.4092 4.64079,-13.49012 5.21053,-14.69076 0.2337,-0.49249 0.89778,-1.15531 1.52687,-1.52399 1.06659,-0.62506 1.30416,-0.65243 5.66261,-0.65243 4.88758,0 5.74204,0.17174 6.85237,1.37728 0.64384,0.69904 5.61745,14.327 5.61745,15.3921 0,1.18982 -1.49166,1.89728 -2.43768,1.15614 -0.23218,-0.1819 -1.28689,-2.71198 -2.3438,-5.6224 -1.05691,-2.91042 -2.05056,-5.43619 -2.20811,-5.61283 -0.17073,-0.19142 -0.43075,-0.23194 -0.64366,-0.1003 -0.28531,0.17639 0.12744,1.82634 2.05052,8.19671 1.32425,4.38672 2.40773,8.0884 2.40773,8.22594 0,0.13755 -1.04179,0.28449 -2.3151,0.32654 l -2.31511,0.0764 -0.0699,8.09834 c -0.0666,7.71309 -0.0951,8.12111 -0.59873,8.57691 -0.75107,0.67971 -2.07882,0.61827 -2.67988,-0.124 -0.45027,-0.55606 -0.48793,-1.22327 -0.48793,-8.64306 v -8.04048 h -0.66146 -0.66146 v 7.90182 c 0,7.46903 -0.0286,7.93822 -0.52278,8.56643 -0.6278,0.79811 -1.22683,0.98673 -2.15097,0.6773 z m 0.79713,-42.36743 c -3.34522,-1.76607 -3.85416,-6.30157 -0.9829,-8.75927 2.50075,-2.14054 6.40301,-1.52413 7.98919,1.26199 0.82237,1.44448 1.01635,2.6108 0.66579,4.00301 -0.83858,3.33032 -4.67389,5.07713 -7.67208,3.49427 z"
       id="path22" /><path
       style="fill:#b2b8b6"
       d="m 83.264896,138.09628 c 0,-4.72943 0.03588,-6.66419 0.07973,-4.29948 0.04385,2.36471 0.04385,6.23425 0,8.59896 -0.04385,2.36471 -0.07973,0.42995 -0.07973,-4.29948 z m 6.018664,-11.57437 c 1.556284,-0.0467 4.175659,-0.0469 5.820833,-3.6e-4 1.645175,0.0465 0.371852,0.0847 -2.829606,0.0849 -3.201459,2e-4 -4.547511,-0.0378 -2.991227,-0.0845 z m 27.14702,2.4e-4 c 1.20746,-0.0491 3.11246,-0.0489 4.23333,6.1e-4 1.12088,0.0495 0.13296,0.0897 -2.19537,0.0893 -2.32834,-3.4e-4 -3.24542,-0.0408 -2.03796,-0.09 z m -3.599,-6.54983 c 0.005,-0.43656 0.0647,-0.58312 0.13177,-0.32569 0.0671,0.25743 0.0627,0.61462 -0.01,0.79375 -0.0725,0.17913 -0.12737,-0.0315 -0.12197,-0.46806 z"
       id="path21" /></g><path
     style="opacity:0.9;fill:#ffa348;fill-rule:evenodd;stroke:#deddda;stroke-width:1.19842e-07;stroke-miterlimit:0;stroke-opacity:0.950538"
     d="M 1.4426286,8.3007484 C -1.6348751,5.2232447 0.53603642,-3.3096826e-6 4.8926285,-3.3096826e-6 9.3210867,-3.3096826e-6 11.458912,5.3127136 8.2333555,8.3020581 6.2067504,10.180253 3.321575,10.179694 1.4426286,8.3007351 Z"
     id="path35" /></svg>
